HIERARCHY
ROOT Hips
{
	OFFSET 0.000000 0.000000 0.000000 
	CHANNELS 6 Xposition Yposition Zposition Zrotation Yrotation Xrotation
	JOINT LeftUpLeg
	{
		OFFSET 1.363060 -1.794630 0.839290 
		CHANNELS 3 Zrotation Yrotation Xrotation
		JOINT LeftLeg
		{
			OFFSET 2.448110 -6.726130 0.000000 
			CHANNELS 3 Zrotation Yrotation Xrotation
			JOINT LeftFoot
			{
				OFFSET 2.562200 -7.039590 0.000000 
				CHANNELS 3 Zrotation Yrotation Xrotation
				JOINT LeftToeBase
				{
					OFFSET 0.157640 -0.433110 2.322550 
					CHANNELS 3 Zrotation Yrotation Xrotation
					End Site
					{
						OFFSET 0.000000 0.000000 0.000000 
					}
				}
			}
		}
	}
	JOINT RightUpLeg
	{
		OFFSET -1.305520 -1.794630 0.839290 
		CHANNELS 3 Zrotation Yrotation Xrotation
		JOINT RightLeg
		{
			OFFSET -2.542530 -6.985550 0.000000 
			CHANNELS 3 Zrotation Yrotation Xrotation
			JOINT RightFoot
			{
				OFFSET -2.568260 -7.056230 0.000000 
				CHANNELS 3 Zrotation Yrotation Xrotation
				JOINT RightToeBase
				{
					OFFSET -0.164730 -0.452590 2.363150 
					CHANNELS 3 Zrotation Yrotation Xrotation
					End Site
					{
						OFFSET 0.000000 0.000000 0.000000 
					}
				}
			}
		}
	}
	JOINT Spine
	{
		OFFSET 0.028270 2.035590 -0.193380 
		CHANNELS 3 Zrotation Yrotation Xrotation
		JOINT Spine1
		{
			OFFSET 0.056720 2.048850 -0.042750 
			CHANNELS 3 Zrotation Yrotation Xrotation
			JOINT Neck1
			{
				OFFSET -0.054170 1.746240 0.172020 
				CHANNELS 3 Zrotation Yrotation Xrotation
				JOINT Head
				{
					OFFSET 0.104070 1.761360 -0.123970 
					CHANNELS 3 Zrotation Yrotation Xrotation
					End Site
					{
						OFFSET 0.000000 0.000000 0.000000 
					}
				}
			}
			JOINT LeftArm
			{
				OFFSET 3.362410 1.200890 -0.311210 
				CHANNELS 3 Zrotation Yrotation Xrotation
				JOINT LeftForeArm
				{
					OFFSET 4.983000 -0.000000 -0.000000 
					CHANNELS 3 Zrotation Yrotation Xrotation
					JOINT LeftHand
					{
						OFFSET 3.483560 -0.000000 -0.000000 
						CHANNELS 3 Zrotation Yrotation Xrotation
						JOINT LeftHandIndex1
						{
							OFFSET 0.715260 -0.000000 -0.000000 
							CHANNELS 3 Zrotation Yrotation Xrotation
							End Site
							{
								OFFSET 0.000000 0.000000 0.000000 
							}
						}
					}
				}
			}
			JOINT RightArm
			{
				OFFSET -3.136600 1.374050 -0.404650 
				CHANNELS 3 Zrotation Yrotation Xrotation
				JOINT RightForeArm
				{
					OFFSET -5.241900 -0.000000 -0.000000 
					CHANNELS 3 Zrotation Yrotation Xrotation
					JOINT RightHand
					{
						OFFSET -3.444170 -0.000000 -0.000000 
						CHANNELS 3 Zrotation Yrotation Xrotation
						JOINT RightHandIndex1
						{
							OFFSET -0.622530 -0.000000 -0.000000 
							CHANNELS 3 Zrotation Yrotation Xrotation
							End Site
							{
								OFFSET 0.000000 0.000000 0.000000 
							}
						}
					}
				}
			}
		}
	}
}
MOTION
Frames: 10
Frame Time: 0.041667
0.960716 17.905057 -8.829246 -5.150529 -6.094281 9.634578 -11.246167 -1.064692 -15.729098 1.094912 9.571005 28.349839 -0.092647 3.942520 -12.131750 0.217700 -3.003600 -8.288700 18.282163 5.260679 -15.799137 -2.182108 -9.832430 27.550445 0.236927 -4.258274 -9.999404 -0.004900 -0.453000 1.244800 5.058783 0.783029 -0.354690 5.116105 0.322690 3.587936 -1.996380 0.848227 35.054840 -2.489500 0.614900 17.813600 -92.222812 -1.929563 31.058707 11.203332 -19.791053 -1.303315 1.090528 0.799358 1.903367 -7.125000 0.000000 0.000000 86.480793 -0.940285 23.737272 -13.978624 24.333783 -2.613718 0.014117 0.213580 -6.916358 7.125000 0.000000 0.000000 
0.963709 17.905057 -8.827749 -5.155912 -6.115004 9.624252 -11.255059 -1.034338 -15.713075 1.092745 9.564559 28.333530 -0.086132 3.909329 -12.126888 0.207000 -2.929500 -8.082600 18.280702 5.210442 -15.807514 -2.182370 -9.833405 27.549867 0.246085 -4.287336 -9.894695 -0.006100 -0.505300 1.388600 5.059951 0.774702 -0.339657 5.098694 0.318707 3.583921 -2.010762 0.879916 35.087990 -2.491200 0.624700 17.844400 -92.222202 -1.891145 31.085583 11.230175 -19.839622 -1.315029 1.088068 0.799049 1.795256 -7.125000 0.000000 0.000000 86.478219 -0.892904 23.735107 -13.952198 24.296863 -2.604582 0.016239 0.213397 -6.891325 7.125000 0.000000 0.000000 
0.967302 17.903760 -8.825454 -5.117256 -6.168666 9.595959 -11.326647 -0.939517 -15.709016 1.092852 9.562590 28.333893 -0.095659 3.958776 -12.135557 0.248000 -3.204600 -8.848900 18.217713 5.175672 -15.801445 -2.186944 -9.839947 27.566032 0.246256 -4.216718 -9.622463 -0.029000 -1.099000 3.021300 5.066127 0.786942 -0.273735 5.121982 0.324244 3.624104 -2.007320 0.913945 35.088462 -2.478700 0.633100 17.856100 -92.269479 -1.899351 31.012918 11.272161 -19.908348 -1.324973 1.083907 0.808398 1.995806 -7.125000 0.000000 0.000000 86.432036 -0.867148 23.822869 -13.969899 24.323335 -2.611919 0.016342 0.212198 -7.019860 7.125000 0.000000 0.000000 
0.967900 17.901365 -8.827350 -5.130202 -6.201032 9.567035 -11.325528 -0.873944 -15.704171 1.094318 9.562276 28.336778 -0.115433 4.043503 -12.105371 0.299700 -3.519900 -9.729700 18.224708 5.204063 -15.776269 -2.190247 -9.843011 27.575184 0.253140 -4.209693 -9.428615 -0.049300 -1.433500 3.942300 5.108122 0.793611 -0.222128 5.153190 0.327413 3.641219 -2.009057 0.913063 35.068412 -2.473200 0.626200 17.846600 -92.308797 -1.919056 31.015794 11.285123 -19.929021 -1.325734 1.085154 0.811316 2.058043 -7.125000 0.000000 0.000000 86.395213 -0.867942 23.930118 -14.003681 24.373094 -2.624428 0.014715 0.211951 -7.172466 7.125000 0.000000 0.000000 
0.967900 17.900866 -8.831341 -5.151692 -6.144980 9.610192 -11.287996 -0.900647 -15.766126 1.095245 9.564863 28.337189 -0.104537 3.967201 -12.039721 0.268400 -3.332500 -9.205900 18.248057 5.234214 -15.819626 -2.191096 -9.840844 27.579157 0.244822 -4.191064 -9.563284 -0.040700 -1.301400 3.578500 5.131676 0.762103 -0.226503 5.158808 0.311556 3.643439 -1.979968 0.904201 35.076157 -2.456500 0.622300 17.857400 -92.323782 -1.928305 31.055600 11.274840 -19.917433 -1.328968 1.086888 0.800491 1.896015 -7.125000 0.000000 0.000000 86.394752 -0.802893 23.946739 -13.993820 24.359245 -2.620491 0.012652 0.212927 -7.141326 7.125000 0.000000 0.000000 
0.969297 17.901864 -8.832639 -5.126233 -6.077414 9.661442 -11.300021 -1.010494 -15.807822 1.096643 9.572973 28.355482 -0.096951 3.931644 -12.044310 0.227500 -3.070200 -8.474200 18.219707 5.213537 -15.877509 -2.187887 -9.833809 27.564669 0.237381 -4.181284 -9.707593 -0.031400 -1.143100 3.142700 5.128071 0.708821 -0.194989 5.171710 0.284839 3.683800 -1.959865 0.924165 35.047292 -2.440800 0.628500 17.857000 -92.350825 -1.969734 31.001235 11.243266 -19.872133 -1.329989 1.088845 0.780528 1.759201 -7.125000 0.000000 0.000000 86.372316 -0.689669 24.028547 -13.984604 24.346452 -2.618010 0.009733 0.212410 -7.125738 7.125000 0.000000 0.000000 
0.970994 17.903061 -8.832239 -5.153847 -6.060865 9.661122 -11.271483 -1.088238 -15.790729 1.102104 9.584593 28.390634 -0.114851 4.021526 -12.053433 0.236300 -3.128200 -8.636000 18.250886 5.192049 -15.863927 -2.181507 -9.822913 27.528493 0.237824 -4.185590 -9.712331 -0.032100 -1.156100 3.178400 5.165208 0.667727 -0.187994 5.172709 0.265362 3.677291 -1.994219 0.951791 34.980964 -2.452100 0.633500 17.814300 -92.365991 -1.938790 30.991624 11.244996 -19.877360 -1.332921 1.091322 0.773990 1.619475 -7.125000 0.000000 0.000000 86.325598 -0.656616 24.163352 -13.981037 24.341627 -2.617177 0.010221 0.212114 -7.212106 7.125000 0.000000 0.000000 
0.971393 17.904359 -8.832239 -5.254500 -6.084305 9.694043 -11.175258 -0.999542 -15.872830 1.111624 9.596795 28.422208 -0.113904 3.994221 -11.988883 0.263400 -3.301600 -9.119700 18.350181 5.240170 -15.852979 -2.176599 -9.808406 27.490558 0.234612 -4.166185 -9.716247 -0.033100 -1.175100 3.230700 5.271358 0.657424 -0.186486 5.174346 0.260455 3.704803 -1.975723 0.956388 34.942281 -2.431000 0.627400 17.782000 -92.411372 -1.914375 31.018814 11.273452 -19.923935 -1.338780 1.091790 0.778830 1.549519 -7.125000 0.000000 0.000000 86.256564 -0.627655 24.269182 -13.973854 24.329806 -2.614092 0.011495 0.212581 -7.309924 7.125000 0.000000 0.000000 
0.971792 17.905157 -8.832439 -5.330405 -6.134647 9.747628 -11.108631 -0.897573 -15.978274 1.120341 9.609342 28.452612 -0.089363 3.880238 -12.001655 0.250600 -3.220900 -8.894400 18.416780 5.285945 -15.873408 -2.172843 -9.795056 27.458658 0.242273 -4.198662 -9.666092 -0.027600 -1.072900 2.949300 5.345566 0.669725 -0.210887 5.175676 0.266415 3.723889 -1.945312 0.954932 34.957847 -2.406500 0.621900 17.787500 -92.461180 -1.898075 30.962314 11.281182 -19.938371 -1.342615 1.091780 0.776022 1.609688 -7.125000 0.000000 0.000000 86.210881 -0.617087 24.369636 -13.985964 24.345696 -2.618542 0.009514 0.212363 -7.377370 7.125000 0.000000 0.000000 
0.972690 17.905356 -8.832639 -5.341994 -6.160581 9.759484 -11.105117 -0.933729 -15.977883 1.123812 9.618350 28.477431 -0.077868 3.853061 -12.079421 0.222300 -3.035000 -8.376200 18.417834 5.281117 -15.877832 -2.170201 -9.791421 27.445023 0.248147 -4.233368 -9.657168 -0.021500 -0.946200 2.600800 5.383753 0.664319 -0.326600 5.191880 0.264129 3.625142 -2.015091 0.987137 34.999621 -2.437300 0.629400 17.801400 -92.510179 -1.792986 30.756989 11.318479 -20.000477 -1.352055 1.088020 0.782767 2.006452 -7.125000 0.000000 0.000000 86.190037 -0.676244 24.413865 -13.985987 24.345947 -2.618503 0.008338 0.212743 -7.355929 7.125000 0.000000 0.000000 
